<?xml version="1.0" encoding="UTF-8" standalone="no"?>
<!-- Created with Inkscape (http://www.inkscape.org/) -->

<svg
   width="210mm"
   height="297mm"
   viewBox="0 0 210 297"
   version="1.1"
   id="svg1"
   xml:space="preserve"
   inkscape:version="1.4.4 (dcaf3e7d9e, 2026-05-05)"
   sodipodi:docname="white_arch.svg"
   xmlns:inkscape="http://www.inkscape.org/namespaces/inkscape"
   xmlns:sodipodi="http://sodipodi.sourceforge.net/DTD/sodipodi-0.dtd"
   xmlns="http://www.w3.org/2000/svg"
   xmlns:svg="http://www.w3.org/2000/svg"><sodipodi:namedview
     id="namedview1"
     pagecolor="#505050"
     bordercolor="#eeeeee"
     borderopacity="1"
     inkscape:showpageshadow="0"
     inkscape:pageopacity="0"
     inkscape:pagecheckerboard="0"
     inkscape:deskcolor="#505050"
     inkscape:document-units="mm"
     inkscape:zoom="1.0494248"
     inkscape:cx="396.88408"
     inkscape:cy="561.25984"
     inkscape:window-width="1387"
     inkscape:window-height="1385"
     inkscape:window-x="0"
     inkscape:window-y="0"
     inkscape:window-maximized="1"
     inkscape:current-layer="layer1" /><defs
     id="defs1" /><g
     inkscape:label="Layer 1"
     inkscape:groupmode="layer"
     id="layer1"><path
       style="fill:#ffffff;fill-opacity:1;stroke:#ffffff;stroke-width:0.665;stroke-dasharray:none;stroke-opacity:1"
       d="m 57.35468,196.22952 c 0,0 19.22077,-35.00336 33.33783,-63.37485 1.162263,-2.06625 4.947689,2.60102 11.95668,4.67408 -3.253738,-3.85698 -10.416083,-8.69044 -8.909647,-11.40217 4.655457,-10.90354 9.342707,-19.75839 10.980427,-24.75445 4.20004,12.28158 24.07118,50.53846 36.36948,73.96927 -0.90637,-0.28959 -5.83428,-3.08439 -9.8193,-3.73253 6.09146,4.0999 12.87278,9.50478 12.87278,9.50478 l 8.06913,15.11587 c 0,0 -27.81245,-15.3687 -37.1567,-15.59821 0.85124,-12.41461 -1.91919,-23.80346 -10.3988,-23.84116 -9.859855,-0.0438 -11.331493,17.65897 -9.954956,23.71435 -10.893616,1.27689 -37.346924,15.72502 -37.346924,15.72502 z"
       id="path1"
       sodipodi:nodetypes="ccccccccccscc"
       inkscape:label="path1" /></g></svg>
